<svg width="400" height="200" viewBox="0 0 400 200" fill="none" xmlns="http://www.w3.org/2000/svg">
  <rect width="400" height="200" fill="#e5e7eb"/>
  <g fill="#9ca3af">
    <!-- Car body -->
    <path d="M80 120 L80 140 L100 140 L100 160 L120 160 L120 140 L280 140 L280 160 L300 160 L300 140 L320 140 L320 120 L310 100 L290 80 L110 80 L90 100 Z"/>
    <!-- Windows -->
    <path d="M100 80 L110 70 L290 70 L300 80 L300 100 L280 100 L280 90 L120 90 L120 100 L100 100 Z" fill="#d1d5db"/>
    <!-- Wheels -->
    <circle cx="140" cy="140" r="25" fill="#6b7280"/>
    <circle cx="260" cy="140" r="25" fill="#6b7280"/>
    <circle cx="140" cy="140" r="15" fill="#374151"/>
    <circle cx="260" cy="140" r="15" fill="#374151"/>
  </g>
  <text x="200" y="180" text-anchor="middle" fill="#6b7280" font-family="Arial, sans-serif" font-size="14">Vehicle Image</text>
</svg>
